<?xml version="1.0" encoding="iso-8859-1"?>
<!-- Generator: Adobe Illustrator 16.0.0, SVG Export Plug-In . SVG Version: 6.00 Build 0)  -->
<!DOCTYPE svg PUBLIC "-//W3C//DTD SVG 1.1//EN" "http://www.w3.org/Graphics/SVG/1.1/DTD/svg11.dtd">
<svg version="1.1" id="Capa_1" xmlns="http://www.w3.org/2000/svg" xmlns:xlink="http://www.w3.org/1999/xlink" x="0px" y="0px"
	 width="33.363px" height="33.363px" viewBox="0 0 33.363 33.363" style="enable-background:new 0 0 33.363 33.363;"
	 xml:space="preserve">
<g>
	<g>
		<path d="M10.133,21.695c-2.199,0.002-4.467,1.26-4.047,2.068c0.478,0.924,4.106,0.301,5.385,0.65
			c1.816,0.496,3.761,1.58,4.558,2.664C15.007,23.891,12.588,21.695,10.133,21.695z"/>
		<path d="M13.458,20.939c-0.554-2.465-5.917-5.229-6.399-5.508c-2.285-1.319-3.872-2.85-3.872-2.85s2.118,0.609,4.401,1.931
			c0.483,0.278,0.927,0.567,1.341,0.85c-0.361-1.047-1.269-3.103-3.105-4.161C3.304,9.745,0,10.743,0,10.743
			s0.788,3.361,3.308,4.816C5.143,16.619,11.375,17.73,13.458,20.939z"/>
		<path d="M8.757,18.391c-0.275,0.188-0.571,0.379-0.893,0.566c-1.525,0.879-2.939,1.287-2.939,1.287s1.06-1.021,2.584-1.902
			c0.323-0.186,0.639-0.346,0.939-0.49c-0.727-0.141-2.218-0.301-3.442,0.406c-1.684,0.971-2.208,3.213-2.208,3.213
			s2.204,0.668,3.888-0.303C7.91,20.459,8.516,19.088,8.757,18.391z"/>
		<path d="M23.229,21.695c-2.455,0-4.873,2.195-5.896,5.383c0.798-1.082,2.741-2.166,4.558-2.662
			c1.278-0.352,4.908,0.271,5.386-0.65C27.696,22.953,25.428,21.697,23.229,21.695z"/>
		<path d="M27.538,11.201c-1.837,1.06-2.744,3.114-3.104,4.161c0.414-0.281,0.856-0.57,1.34-0.85
			c2.283-1.32,4.402-1.931,4.402-1.931s-1.588,1.529-3.873,2.85c-0.481,0.277-5.846,3.043-6.398,5.508
			c2.083-3.209,8.314-4.32,10.15-5.38c2.521-1.455,3.309-4.816,3.309-4.816S30.059,9.745,27.538,11.201z"/>
		<path d="M28.355,18.258c-1.225-0.707-2.715-0.547-3.441-0.406c0.301,0.146,0.616,0.307,0.939,0.49
			c1.523,0.881,2.584,1.902,2.584,1.902s-1.414-0.408-2.939-1.287c-0.32-0.188-0.617-0.379-0.893-0.566
			c0.24,0.697,0.847,2.068,2.07,2.777c1.685,0.971,3.889,0.303,3.889,0.303S30.039,19.229,28.355,18.258z"/>
		<path d="M27.926,7.771c-5.564-1.019-11.244,5.679-11.244,5.679S9.822,7.226,5.437,7.771c8.426,4.424,11.245,20.747,11.245,20.747
			S17.51,13.851,27.926,7.771z"/>
		<circle cx="16.682" cy="7.666" r="2.82"/>
	</g>
</g>
<g>
</g>
<g>
</g>
<g>
</g>
<g>
</g>
<g>
</g>
<g>
</g>
<g>
</g>
<g>
</g>
<g>
</g>
<g>
</g>
<g>
</g>
<g>
</g>
<g>
</g>
<g>
</g>
<g>
</g>
</svg>
