<svg xmlns="http://www.w3.org/2000/svg" xmlns:xlink="http://www.w3.org/1999/xlink" style="enable-background:new 0 0 750 500" x="0" y="0" version="1.1" viewBox="0 0 750 500" xml:space="preserve"><style type="text/css">.st0{display:none}.st1{display:inline;fill:#fff}.st2{fill:none}.st2,.st3{display:inline}.st4{fill:#75769a}.st5{font-family:&apos;SofiaPro-Light&apos;}.st6{font-size:9px}.st7{display:none;fill:#21295b}.st8{font-family:&apos;Roboto-Black&apos;}.st9{font-size:24px}.st10{fill:#afb3bd}.st11{fill:#f5c5b3}.st12{fill:#42b2fc}.st13{fill:#fec4ad}.st14{fill:#e8d4e5}.st15{fill:#7b2b1a}.st16{fill:#133a50}.st17{fill:#fff}.st18{fill:none;stroke:#fff;stroke-width:2;stroke-miterlimit:10}.st19{fill:#4fae86}.st20{fill:#319188}.st21,.st22{fill:none;stroke:#194459;stroke-miterlimit:10}.st22{stroke:#fff}.st23{fill:#21295b}.st24{fill:#ff3a46}.st25{fill:#cfcfcf}.st26{fill:#b3b3b3}.st27{fill:#d6313b}.st28{fill:#ffd71d}.st28,.st29,.st30,.st31{clip-path:url(#SVGID_2_)}.st29{opacity:.7;fill:url(#SVGID_3_)}.st30{fill:url(#SVGID_4_)}.st31{opacity:.7;fill:#fd0}.st32{fill:url(#SVGID_5_)}.st33{fill:url(#SVGID_6_)}.st34{fill:#471a16}.st35{fill:#2a2a2a}</style><g id="BACKGROUND" class="st0"><rect width="750" height="500" class="st1"/></g><g id="OBJECTS"><g><g class="st0"><rect width="462.26" height="28.51" x="145.4" y="424.94" class="st2"/><text class="st3" transform="matrix(1 0 0 1 153.9355 431.3291)"><tspan x="0" y="0" class="st4 st5 st6">Lorem ipsum dolor sit amet, consectetur adipiscing elit. Pellentesque suscipit tellus vitae purus dignissim, nec tincidunt </tspan><tspan x="61.66" y="12.14" class="st4 st5 st6">neque condimentum. Nam nec ligula pretium mi interdum hendrerit in sit amet ligula.</tspan></text></g><text class="st7 st8 st9" transform="matrix(1 0 0 1 322.1631 415.1631)">Contact Us</text><g><path d="M138.36,257.54c-30.77,19.35-46.89,62.95-21.98,121.06h490.06c8.32-21.05,13.3-48.71,14.86-65.17 c3.41-35.91-8.8-73.22-30.32-92.92c-54.46-49.84-99.74,19.39-128.37-9.88c-16.53-16.89-14.96-64.31-27.89-86.32 c-28.54-48.59-82.28-72.54-135.27-63.94c-35.26,5.72-67.06,24.38-86.46,55.95c-26.57,43.24-7.23,74.21-18.96,104.1 C180.96,253.73,158.91,244.61,138.36,257.54z" class="st10"/><g><g><path d="M181.94,181.31c-0.07,0.28,4.48-2.54,4.48-2.54l1.92-2.98c0,0,1.88-1.21,3.22-1.87 c1.35-0.65,3.82-4.68,3.82-4.68l-0.98-1.23c0,0-1.41,1.72-1.88,2c-0.46,0.28-1.41,0.05-1.41,0.05s0.33-1.25,1.08-3.04 c0.75-1.79,3.05-4.67,3.05-4.67l-0.86-0.9c0,0-1.38,1.31-1.88,1.96c-0.5,0.66-1.45,2.04-1.45,2.04s0.99-2.43,1.6-3.34 c0.61-0.91,1.28-2.13,1.28-2.13l-1-0.69c0,0-1.17,1.44-1.77,2.52c-0.6,1.08-1.71,2.86-1.71,2.86s0.85-2.74,1.26-3.53 c0.42-0.79,0.57-1.2,0.57-1.2l-1.18-0.4c0,0-0.88,1.06-1.4,2.5c-0.52,1.43-0.9,2.06-0.9,2.06s0.35-2.31,0.74-2.99 c0.39-0.68,0.4-0.96,0.4-0.96l-0.96-0.18c0,0-1.84,3.39-2.81,5.49c-0.97,2.1-1.72,4.94-2.27,6.48 c-0.55,1.54-1.25,6.77-1.25,6.77L181.94,181.31z" class="st11"/><path d="M210.29,201.44l-23.3-4.01c0,0-0.63-5.52-0.25-11.94c0.41-6.97,1.27-8.91,1.27-8.91l-6.25-0.87 c0,0-1.23,5.49-2.12,9.44c-1.96,8.75-3.76,16.95-2.26,18.77c2.18,2.65,21.56,8.05,28.19,13.02 C209.57,219.93,209.34,210.35,210.29,201.44z" class="st12"/></g><polygon points="243.32 267.67 242.15 275.73 244.58 281.25 246.36 278.85 246.77 274.35 249.4 274.74 250.69 273.12 250.58 269.75 250.14 260.57" class="st13"/><path d="M241.69,206.26c-1.8-0.66-7.65-0.23-7.65-0.23s-0.55,6.25,1.83,11.08c2.38,4.83,8.28,22.43,9.02,24.08 c0.75,1.65-1.56,26.48-1.56,26.48l8.56-1.75c0,0,4.12-19.15,4.09-24.02c-0.03-4.87-4.59-23.09-7.82-28.9 C244.91,207.2,246.05,207.87,241.69,206.26z" class="st12"/><path d="M227.59,188.35c0,0-1.88,8.26-0.41,10.18c0.86,1.13,4.52,5.14,4.52,5.14s-12.12,6.4-15.69,6.4 c-3.56,0-2.31-7.15-2.31-7.15s3.89-3.07,4.46-4.62c0.58-1.55,0.9-6.05,0.9-6.05L227.59,188.35z" class="st13"/><g><g><path d="M229.01,188.65c0,0-0.14-3.01,2.38-2.93c1.61,0.05,1.73,1.52,0.48,3.42c-0.53,0.8-0.58,2.61-1.24,3.19 c-0.8,0.71-1.46-0.38-1.7-0.88C228.53,190.64,229.01,188.65,229.01,188.65z" class="st11"/></g><g><path d="M215.44,188.65c0,0,0.14-3.01-2.38-2.93c-1.61,0.05-1.73,1.52-0.48,3.42c0.53,0.8,0.58,2.61,1.24,3.19 c0.8,0.71,1.46-0.38,1.7-0.88C215.92,190.64,215.44,188.65,215.44,188.65z" class="st11"/></g><path d="M231.56,181.29c-0.06,0.98-0.26,1.61-0.51,3.06c-0.06,0.35-0.13,0.75-0.19,1.21 c-0.52,3.61-1.18,8.52-1.47,9.25c-0.47,1.21-3.05,3.18-4.27,3.9c-1.22,0.72-4.3,0.57-5.53-0.15c-1.22-0.72-3.99-2.54-4.46-3.75 c-0.29-0.75-0.97-5.8-1.5-9.46c-0.06-0.42-0.12-0.78-0.17-1.1c-0.25-1.43-0.44-1.99-0.5-2.96c-0.19-3.05,3.24-7.48,9.3-7.48 C229.43,173.81,231.75,178.24,231.56,181.29z" class="st11"/><path d="M216,177.45c0,0,5.15-2.29,11.09,0.41l2.14-1.36c0,0-3.11-1.63-7.59-1.6 C217.16,174.93,216,177.45,216,177.45z" class="st14"/><g><path d="M231.06,184.35c-0.06,0.35-0.13,0.75-0.19,1.21c-0.52,3.61-1.18,8.52-1.47,9.25 c-0.47,1.21-3.05,3.18-4.27,3.9c-1.22,0.72-4.3,0.57-5.53-0.15c-1.22-0.72-3.99-2.54-4.46-3.75c-0.29-0.75-0.97-5.8-1.5-9.46 c-0.06-0.42-0.12-0.78-0.17-1.1l0.49-0.74c0,0,0.89,5.23,2.26,6.86c1.36,1.62,1.63,1.7,1.63,1.7s1.49-0.37,2.79-0.69 c0.08-0.02,0.15-0.04,0.22-0.06c1.08-0.26,2.19-0.26,3.26,0.03c0.06,0.01,0.12,0.03,0.18,0.05l0.2,0.06l2.12,0.61 c0,0,0.49-0.08,1.86-1.7c1.37-1.63,2.02-6.86,2.02-6.86L231.06,184.35z" class="st15"/></g><path d="M232,179.34c-0.02,0.1-0.51,3.67-0.71,4.23c-0.31,0.86-0.55,1.49-0.55,1.49l-0.37-0.8 c-0.68-1.48-1.05-3.08-1.08-4.71l-0.07-3.06l1.02-0.9C232.25,175.9,232.46,177.06,232,179.34z" class="st15"/><path d="M216.12,176.65l0,0.01l-0.49,3.15c-0.23,1.46-0.72,2.86-1.46,4.14l-0.04,0.07l-0.55,0.96 c0,0-0.16-0.56-0.39-1.35c-0.17-0.58-0.58-3.56-0.68-3.98c-0.03-0.13-0.06-0.26-0.08-0.38c-0.43-2.24-0.01-3.17,1.97-3.47 L216.12,176.65z" class="st15"/><path d="M230.24,175.6l-1.02,0.9l-1.94,0.7c-0.23-0.24-3.76-1.46-6.82-1.23c-3.88,0.3-4.41,1.42-4.47,1.49 c0,0,0,0,0,0l-0.4-0.09l-1.91-0.42l-0.39-0.09c0,0,0.44-1.68,0.76-2.16c1.53-2.3,5.68-3.79,9.46-3.41 c0.13,0.01,0.25,0.03,0.38,0.04c3.53,0.46,5.14,2.13,5.14,2.13L230.24,175.6z" class="st15"/></g><path d="M239.69,371.49v7.56h-14.53c0,0,0.55-2.74,7.44-4l1.01-3.56H239.69z" class="st16"/><path d="M217.59,371.49v7.56h-14.53c0,0,0.55-2.74,7.44-4l1.01-3.56H217.59z" class="st16"/><path d="M237.25,258.93c0,0,2.03,24.35,2.1,44.21c0.07,19.86,1.25,70.07,1.25,70.07h-8.02 c0,0-8.27-48.22-11.28-60.99c-3.01-12.77-10.82-53.05-10.82-53.05L237.25,258.93z" class="st16"/><path d="M219.81,285.09c0,0-1.5,30.26-1.8,36.22c-0.3,5.96,0,51.88,0,51.88s-7.52,0.2-7.52,0 c0-0.2-7.09-48.91-8-63.59c-0.92-14.68-0.38-32.09-1.6-34.12c-1.22-2.03,3.29-16.45,3.29-16.45l10.64,2.84L219.81,285.09z" class="st16"/><path d="M216.54,200.17c0,0-3.33,7.56,1.68,8.39c7.97,1.33,10.4-8.87,10.4-8.87l8.79,4.53 c0,0-0.16,54.72,3.29,71.42c2.01,9.7-31.38,5.08-36.27-3.53c-4.24-7.45,8.01-69.37,8.01-69.37L216.54,200.17z" class="st17"/><path d="M230.69,200.64c-0.24,0.33-12.03,34.84-8.02,67.32c0.94,7.57,14.74,1.31,18.04,1.31 c0,0,1.57-24.24,1.95-33.25c0.38-9.01-3.91-11.98-3.53-16.39c0.38-4.41,5.18-12.27,5.18-12.27L230.69,200.64z" class="st12"/><g><path d="M210.98,271.39c1.35-22.58,1.9-69.84,1.9-69.84l-7.97-0.59c0,0-3.99,39.64-4.04,44.15 c-0.02,1.79,0.54,23.56-0.67,27.63C202.88,273.14,210.82,274.11,210.98,271.39z" class="st12"/></g></g><path d="M297.74,188.34c-6.25,2.15-12.68,4.39-17.65,8.75c-4.97,4.36-8.17,11.43-6.07,17.7 c2.09,6.27,10.81,9.92,15.85,5.64c1.81-1.54,2.93-4.18,1.96-6.34c-1.92-4.29-8.62-2.28-11.76,1.22 c-3.72,4.14-6.09,9.81-5.17,15.3c0.92,5.49,5.72,10.43,11.29,10.43c5.57,0,13.51-8.41,8.74-11.29 c-6.06-3.66-13.84,5.05-16.82,11.47c-2.98,6.42-1.12,15.1,4.97,18.71c6.09,3.6,20.37-0.95,16.63-6.96 c-3.95-6.35-15.64,2.8-17.19,10.12c-1.55,7.31,4.17,15.33,11.6,16.23c7.42,0.9,20.28-7.55,15.14-12.98 c-7.42-7.85-19.8,12.14-16.23,22.33c3.57,10.2,18.34,14.25,26.62,7.32c1.55-1.3,2.95-3.16,2.66-5.16 c-0.48-3.34-5.05-4.28-8.25-3.21c-8.34,2.79-12.11,14.46-6.97,21.6c5.14,7.14,17.41,7.27,22.7,0.24 c1.03-1.37,1.83-3.09,1.46-4.76c-0.52-2.34-3.29-3.65-5.64-3.21c-2.35,0.44-4.25,2.21-5.59,4.2c-4.76,7.05-3.15,17.64,3.48,22.96 c6.64,5.32,17.32,4.59,23.17-1.59c1.52-1.61,2.79-3.76,2.38-5.94c-0.47-2.52-3.16-4.21-5.72-4.15c-2.56,0.06-4.91,1.53-6.69,3.38 c-7.47,7.76-4.28,22.77,5.7,26.81c9.98,4.05,29.77-7.1,22.76-15.27c-4.68-5.46-13.91,6.35-12.73,13.44 c1.18,7.09,9.34,11.93,16.29,10.1c6.95-1.83,16.11-11.8,10.74-16.58c-3.8-3.38-9.95,3.77-11.13,8.72 c-1.17,4.95,1.46,10.54,6.03,12.79c4.92,2.42,10.94,0.96,15.66-1.8c4.73-2.77,8.65-6.72,13.2-9.77 c9.14-6.12,20.82-8.3,31.55-5.91" class="st18"/><g><path d="M613.31,220.93c-10.13-6.47-100.42,69.65-97.11,129.79c0,0,17.58-23.74,32.9-35.31 c15.32-11.57,16.82-23.68,16.79-35.67c-0.03-11.99,22.88-7.04,25.46-20.34C595.91,235.85,622.42,226.74,613.31,220.93z" class="st19"/><g><g><path d="M619.24,276.95c-14.59,8.83-10.29,20.61-18.89,27.49c-6.25,5-16.69,2.39-21.9,9.2 c-5.86,7.68,0.8,18.25,1.3,27.5c0.68,12.78-10.72,22.37-22.3,26.25c-13.45,4.51-30.86,3.1-38.23-10.28 c-8.69-15.79-2.18-39.59,13.06-47.01c3.7-1.8,8.41-2.29,11.43-5.94c5.11-6.16,1.83-15.01,4.2-22.84 c2.31-7.63,9.85-13,16.8-15.37c6.95-2.38,14.03-2.86,20.82-5.62c9.25-3.76,17.35-12.01,25.05-17.58 c6.87-4.97,30.98-14.28,34.91,2C649.05,259.6,631.49,269.53,619.24,276.95z" class="st20"/></g><path d="M620.74,253.22c0,0-59.62,29.96-107.19,126.65" class="st21"/></g><path d="M656.75,298.38c0,0-76.66-0.86-140.37,72.22" class="st22"/><g><g><path d="M618.73,332.56c-7.31,2.92-9.29,15.24-17.16,16.81c-5.72,1.14-11.83-3.93-17.42-1.3 c-6.3,2.96-5.19,11.85-7.77,17.89c-3.56,8.34-14.13,10.71-23.04,9.39c-10.35-1.53-21.46-8.1-22.15-19 c-0.82-12.86,10.97-25.85,23.42-25.59c3.02,0.06,6.3,1.29,9.45-0.04c5.32-2.24,5.92-8.93,9.95-13.13 c3.92-4.09,10.62-5.04,15.98-4.28c5.36,0.76,10.21,2.76,15.58,3.22c7.32,0.63,15.28-1.97,22.14-2.99 c6.12-0.91,31.11-0.43,22.55,12.66C644.34,335.26,628.47,328.67,618.73,332.56z" class="st19"/></g><path d="M634.5,320.49c0,0-53.25,4.53-115.18,50.41" class="st21"/></g><path d="M460.97,377.75c0,0,12.12-21.22,14.09-23.4c12.46-13.8,29-13.95,45.83-10.47 c4.87,1.01,17.77,7.78,22.44,6.85c3.65-0.73,8.02-14.58,19.68-13.85c11.66,0.73,12.37,14.58,12.37,14.58s7.32-16.09,18.98-14.61 c11.66,1.49,11.66,12.35,2.92,20.41c0,0,18.59-5.58,36.63,3.06c18.04,8.64,9.43,19.97,9.43,19.97L460.97,377.75z" class="st20"/></g><g><path d="M136.69,220.93c10.13-6.47,100.42,69.65,97.11,129.79c0,0-17.58-23.74-32.9-35.31 s-16.82-23.68-16.79-35.67c0.03-11.99-22.88-7.04-25.46-20.34C154.09,235.85,127.58,226.74,136.69,220.93z" class="st19"/><g><g><path d="M130.76,276.95c14.59,8.83,10.29,20.61,18.89,27.49c6.25,5,16.69,2.39,21.9,9.2 c5.86,7.68-0.8,18.25-1.3,27.5c-0.68,12.78,10.72,22.37,22.3,26.25c13.45,4.51,30.86,3.1,38.23-10.28 c8.69-15.79,2.19-39.59-13.06-47.01c-3.7-1.8-8.41-2.29-11.43-5.94c-5.11-6.16-1.83-15.01-4.19-22.84 c-2.31-7.63-9.85-13-16.8-15.37c-6.95-2.38-14.03-2.86-20.82-5.62c-9.25-3.76-17.35-12.01-25.05-17.58 c-6.87-4.97-30.98-14.28-34.91,2C100.95,259.6,118.51,269.53,130.76,276.95z" class="st20"/></g><path d="M129.26,253.22c0,0,59.62,29.96,107.19,126.65" class="st21"/></g><path d="M93.25,298.38c0,0,76.66-0.86,140.37,72.22" class="st22"/><g><g><path d="M131.27,332.56c7.31,2.92,9.29,15.24,17.16,16.81c5.72,1.14,11.83-3.93,17.42-1.3 c6.3,2.96,5.19,11.85,7.77,17.89c3.56,8.34,14.13,10.71,23.04,9.39c10.35-1.53,21.46-8.1,22.15-19 c0.82-12.86-10.97-25.85-23.42-25.59c-3.02,0.06-6.3,1.29-9.45-0.04c-5.32-2.24-5.92-8.93-9.95-13.13 c-3.93-4.09-10.62-5.04-15.98-4.28c-5.36,0.76-10.21,2.76-15.58,3.22c-7.32,0.63-15.28-1.97-22.14-2.99 c-6.12-0.91-31.11-0.43-22.55,12.66C105.66,335.26,121.53,328.67,131.27,332.56z" class="st19"/></g><path d="M115.5,320.49c0,0,53.25,4.53,115.18,50.41" class="st21"/></g><path d="M289.03,377.75c0,0-12.12-21.22-14.09-23.4c-12.46-13.8-29-13.95-45.83-10.47 c-4.87,1.01-17.77,7.78-22.44,6.85c-3.64-0.73-8.02-14.58-19.68-13.85c-11.66,0.73-12.37,14.58-12.37,14.58 s-7.32-16.09-18.98-14.61c-11.66,1.49-11.66,12.35-2.92,20.41c0,0-18.59-5.58-36.63,3.06c-18.04,8.64-9.43,19.97-9.43,19.97 L289.03,377.75z" class="st20"/></g><g><g><path d="M419.62,379.6h-18.86c-2.08,0-3.82-1.6-3.99-3.67l-1.24-14.89h29.3l-1.24,14.89 C423.44,378,421.7,379.6,419.62,379.6z" class="st23"/><path d="M530.98,379.6h-18.86c-2.08,0-3.82-1.6-3.99-3.67l-1.24-14.89h29.3l-1.24,14.89 C534.79,378,533.06,379.6,530.98,379.6z" class="st23"/></g><path d="M534.24,341.5H397.5l9.67-70.5c0.75-5.5,5.45-9.6,11-9.6h95.4c5.55,0,10.25,4.1,11,9.6L534.24,341.5z" class="st24"/><path d="M515.79,327.83h-99.84l7.09-70.82c0.53-5.26,4.96-9.27,10.25-9.27h65.16c5.29,0,9.72,4.01,10.25,9.27 L515.79,327.83z" class="st24"/><polygon points="399.69 325.5 397.5 341.5 534.24 341.5 532.05 325.5" class="st25"/><polygon points="549.04 368.85 382.69 368.85 385.77 332.71 545.97 332.71" class="st24"/><g><ellipse cx="465.87" cy="291.8" class="st25" rx="30.43" ry="30.43" transform="matrix(0.838 -0.5456 0.5456 0.838 -83.7578 301.4348)"/><ellipse cx="465.87" cy="291.8" class="st17" rx="26.32" ry="26.32" transform="matrix(0.9997 -0.0234 0.0234 0.9997 -6.6953 10.9724)"/><g><g><path d="M473.22,313.44c-0.91,0-1.79-0.36-2.42-1c-0.16-0.16-0.3-0.33-0.42-0.53 c-0.13-0.19-0.23-0.38-0.32-0.59c-0.08-0.2-0.15-0.42-0.19-0.63c-0.04-0.22-0.07-0.45-0.07-0.67c0-0.9,0.37-1.78,1.01-2.41 c0.79-0.79,1.97-1.16,3.08-0.94c0.22,0.05,0.43,0.11,0.63,0.2c0.21,0.09,0.41,0.2,0.6,0.31c0.18,0.13,0.36,0.27,0.52,0.43 c0.63,0.63,1.01,1.51,1.01,2.41c0,0.22-0.03,0.45-0.07,0.67c-0.05,0.21-0.12,0.43-0.19,0.63c-0.09,0.21-0.2,0.4-0.31,0.59 c-0.13,0.2-0.27,0.37-0.43,0.53c-0.16,0.16-0.33,0.29-0.52,0.42c-0.19,0.13-0.38,0.23-0.6,0.31c-0.2,0.09-0.42,0.16-0.63,0.2 C473.66,313.43,473.44,313.44,473.22,313.44z" class="st26"/></g><g><path d="M462.63,314.65L462.63,314.65L462.63,314.65c-1.86-0.26-3.16-1.99-2.9-3.87l0,0 c0.26-1.86,1.99-3.16,3.87-2.9l0,0c1.86,0.27,3.16,2,2.9,3.87l0,0c-0.24,1.71-1.71,2.94-3.39,2.94l0,0 C462.96,314.68,462.8,314.67,462.63,314.65z M451.65,309.98L451.65,309.98L451.65,309.98c-1.48-1.16-1.75-3.31-0.59-4.8l0,0 c1.16-1.48,3.3-1.75,4.79-0.59l0,0c1.48,1.16,1.75,3.31,0.59,4.79l0,0c-0.67,0.87-1.68,1.32-2.69,1.32l0,0 C453.02,310.7,452.28,310.47,451.65,309.98z M444.48,300.43c-0.71-1.75,0.14-3.74,1.88-4.44l0,0 c1.75-0.71,3.74,0.14,4.45,1.88l0,0c0.7,1.75-0.15,3.74-1.89,4.45l0,0c-0.42,0.17-0.85,0.24-1.28,0.24l0,0 C446.29,302.57,445.01,301.77,444.48,300.43z M445.92,292.45c-1.86-0.26-3.17-1.99-2.91-3.87l0,0c0.27-1.86,2-3.17,3.87-2.9 l0,0c1.87,0.26,3.16,1.99,2.91,3.86l0,0c-0.24,1.71-1.71,2.94-3.39,2.94l0,0C446.25,292.48,446.08,292.47,445.92,292.45z M448.28,282.4c-1.48-1.16-1.76-3.31-0.6-4.79l0,0l0,0l0,0c1.16-1.49,3.31-1.76,4.79-0.6l0,0c1.49,1.16,1.76,3.31,0.59,4.79 l0,0c-0.67,0.87-1.68,1.32-2.69,1.32l0,0C449.64,283.12,448.9,282.88,448.28,282.4z M475.86,279 c-1.49-1.16-1.76-3.31-0.6-4.79l0,0c1.15-1.49,3.3-1.76,4.79-0.61l0,0c1.48,1.16,1.76,3.31,0.6,4.8l0,0 c-0.67,0.86-1.68,1.32-2.69,1.32l0,0C477.22,279.72,476.48,279.48,475.86,279z M455.33,274.86 c-0.71-1.75,0.14-3.74,1.88-4.44l0,0l0,0l0,0c1.75-0.71,3.74,0.14,4.45,1.88l0,0c0.7,1.75-0.14,3.74-1.89,4.45l0,0 c-0.41,0.17-0.85,0.24-1.28,0.24l0,0C457.15,277,455.87,276.2,455.33,274.86z M468.11,275.72c-1.86-0.26-3.16-1.99-2.9-3.87 l0,0c0.26-1.86,1.99-3.17,3.86-2.9l0,0c1.87,0.25,3.17,1.99,2.91,3.86l0,0c-0.24,1.71-1.71,2.94-3.38,2.94l0,0 C468.43,275.75,468.28,275.74,468.11,275.72z" class="st26"/></g><g><path d="M484.1,287.87c-0.22,0-0.45-0.03-0.66-0.07c-0.22-0.05-0.44-0.11-0.64-0.19 c-0.2-0.09-0.4-0.2-0.59-0.31c-0.2-0.13-0.36-0.27-0.53-0.43c-0.63-0.63-1-1.51-1-2.41c0-0.23,0.02-0.45,0.07-0.67 c0.04-0.21,0.11-0.43,0.2-0.63c0.09-0.2,0.18-0.41,0.31-0.6c0.13-0.19,0.26-0.36,0.42-0.52c0.17-0.16,0.33-0.3,0.53-0.42 c0.18-0.13,0.38-0.23,0.59-0.32c0.2-0.08,0.42-0.15,0.64-0.19c1.1-0.22,2.28,0.14,3.07,0.93c0.17,0.16,0.3,0.33,0.43,0.52 c0.13,0.19,0.23,0.39,0.31,0.6c0.09,0.2,0.16,0.42,0.2,0.63c0.05,0.22,0.07,0.45,0.07,0.67c0,0.9-0.37,1.78-1,2.41 C485.87,287.5,485,287.87,484.1,287.87z" class="st26"/></g></g></g></g><g><path d="M426.63,180.95c0,0-3.62-7.82,2.93-15.27c0,0,24.75,16.03,52.41,11.51c0,0,3.03,8.34-5.47,16.07 C476.5,193.26,446.89,198.88,426.63,180.95z" class="st27"/><path d="M468.99,145.45c-17.81-15.02-51.54-17.13-94.24-10.25c-36.72,5.91-74.11,19.78-86.6,39.37 c-5.68,8.92-1.82,33.7-1.82,33.7c33.82,2.11,46.21-26.97,46.21-26.97s-2.26-8.25,5.32-11.9c26.52-12.76,67.63-17.12,82.92-13.35 c8.17,2.01,8.78,9.63,8.78,9.63s20.89,23.72,52.34,11.1C481.9,176.78,477.08,152.27,468.99,145.45z" class="st24"/><path d="M339.45,194.59c0,0,0.98-8.56-7.57-13.57c0,0-18.46,22.99-46.15,27.38c0,0-0.26,8.87,10.24,13.54 C295.97,221.94,325.84,217.97,339.45,194.59z" class="st27"/></g><g><defs><path id="SVGID_1_" d="M332.68,379.43H198.83c-7.85,0-14.22-6.37-14.22-14.22v-78.72c0-7.85,6.37-14.22,14.22-14.22h133.86 c7.85,0,14.22,6.37,14.22,14.22v78.72C346.9,373.06,340.54,379.43,332.68,379.43z"/></defs><clipPath id="SVGID_2_"><use style="overflow:visible" xlink:href="#SVGID_1_"/></clipPath><path d="M332.68,379.43H198.83c-7.85,0-14.22-6.37-14.22-14.22v-78.72c0-7.85,6.37-14.22,14.22-14.22h133.86 c7.85,0,14.22,6.37,14.22,14.22v78.72C346.9,373.06,340.54,379.43,332.68,379.43z" class="st28"/><path d="M346.9,286.49c0-7.85-6.37-14.22-14.22-14.22H198.83c-7.85,0-14.22,6.37-14.22,14.22l73.6,59.66 c4.35,3.53,10.57,3.53,14.93,0.01L346.9,286.49z" class="st28"/><radialGradient id="SVGID_3_" cx="201.74" cy="310.701" r="67.182" gradientUnits="userSpaceOnUse"><stop style="stop-color:#fff" offset="0"/><stop style="stop-color:#fff;stop-opacity:0" offset="1"/></radialGradient><path d="M194.08,368.37v-78.72c0-7.85,6.37-14.22,14.22-14.22h133.22c-2.43-1.95-5.48-3.16-8.84-3.16H198.83 c-7.85,0-14.22,6.37-14.22,14.22v78.72c0,7.85,6.37,14.22,14.22,14.22h0.63C196.2,376.82,194.08,372.86,194.08,368.37z" class="st29"/><linearGradient id="SVGID_4_" x1="265.754" x2="265.754" y1="272.267" y2="339.164" gradientUnits="userSpaceOnUse"><stop style="stop-color:#ffd71d" offset="0"/><stop style="stop-color:#feb200" offset="1"/></linearGradient><path d="M256.78,335.78l-72.18-63.51h162.3l-72.18,63.51C269.6,340.29,261.91,340.29,256.78,335.78z" class="st30"/><path d="M256.78,335.78l-72.18-63.51h162.3l-72.18,63.51C269.6,340.29,261.91,340.29,256.78,335.78z" class="st31"/></g><g><g><path d="M395.47,207.44c0,0,4.62-13.33,4.94-14.8c1.91-8.66,2.43-27.44,2.31-31.43c-0.12-3.99-0.49-7.5-0.57-8.04 c-0.08-0.54-2.56-3.21-2.57-3.17c-0.01,0.04-0.77,0.08-0.77,0.08l-0.03,0.5l-1.07-0.92l-0.89-0.05l-0.09,0.42l-1.27-0.61 l-1.23-0.02c0,0,0.79,2.54,1.24,4.08c0.45,1.54-0.02,1.67-0.02,1.67s-0.99,0.37-1.37,0.25c-0.39-0.12-1.74-0.07-1.74-0.07 s3.73,4.85,3.9,5.3c0.17,0.45,2.3,2.66,1.5,7.02c-1.42,7.81-5.31,19.41-5.31,19.41c0.12-0.27-5.02,14.39-5.02,14.39 L395.47,207.44z" class="st13"/><path d="M392.99,225.08c1.43-11.22,7.17-24.32,7.17-24.32s-8.77-1.74-11.04-4.86c0,0-3.02,7.38-4.76,11.06 c-1.92,4.07-4.62,8.49-1.23,10.9C386.4,220.2,392.49,228.99,392.99,225.08z" class="st12"/></g><path d="M359.36,372.34v7.21h13.86c0,0-0.52-2.61-7.09-3.82l-0.97-3.4H359.36z" class="st16"/><path d="M380.45,372.34v7.21h13.86c0,0-0.52-2.61-7.09-3.82l-0.97-3.4H380.45z" class="st16"/><path d="M361.69,264.97c0,0-1.94,20.15-2.01,39.1c-0.07,18.95-1.2,69.92-1.2,69.92h7.65 c0,0,7.89-49.08,10.76-61.26c2.87-12.18,10.32-47.53,10.32-47.53L361.69,264.97z" class="st16"/><path d="M373.46,198.13c0,0-0.5,3.86-0.9,5.82c-0.41,1.96-0.75,3-1.04,3.6c-0.66,1.33-4.73,5.37-4.73,5.37 s12.68,6.7,16.41,6.7c3.73,0,2.42-7.48,2.42-7.48s-4.07-3.21-4.67-4.84c-0.61-1.62-0.94-6.33-0.94-6.33L373.46,198.13z" class="st13"/><path d="M378.33,286.84c0,0,1.43,31.94,1.72,37.63c0.29,5.68,0,49.49,0,49.49s7.17,0.19,7.17,0 c0-0.19,6.76-49.73,7.63-63.73c0.88-14,0.36-30.61,1.53-32.54c1.16-1.94-3.14-12.62-3.14-12.62l-10.15-0.37L378.33,286.84z" class="st16"/><path d="M369.36,209.15c0,0-10.71-4.3-12.48-0.77c-1.34,2.67-0.19,19.8,0.41,24.59c0.52,4.17,3.4,39.21,3.4,39.21 s4,6.2,23.27,3.73c7.43-0.95,11.08-4.57,11.08-4.57s-2.08-41.81-2.66-46.01c-0.57-4.19-2.56-10.74-2.56-10.74l-5.73-3.78 c0,0,1.83,4.04-3.35,5.19C370.32,218.31,369.36,209.15,369.36,209.15z" class="st12"/><path d="M383.59,183.55c1.21,0.49,3.34,1.58,3.57,2.6c0.24,1.01,1.1,3.95,1.21,5.73c0.11,1.78,0.37,5.15,0.36,7.24 c0,2.1-1.27,6.34-1.75,6.79c-0.48,0.45-4,1.18-5.19,0.84c-1.19-0.34-8.18-3.96-8.62-8.38c0,0-1.24,0.65-3.52-3.04 c-0.59-0.96,1.46-8.12,1.73-9.4c0.67-3.1,8.31-0.66,10.03-1.15C383.14,184.29,383.59,183.55,383.59,183.55z" class="st13"/><path d="M387.17,186.14c0,0-5.36,3.35-7.45,3.53c-2.09,0.17-5.16,3.04-5.1,3.94c0.06,0.89-0.88,1.5-0.88,1.5 s-1.3-2.07-2.37-1.86c-2.11,0.43-0.87,3.03,0.27,3.6s2.26,0.93,2.26,0.93s0.19,1.24,0.1,2.23c-0.09,0.99-0.89,2.61-0.89,2.61 s-2.47-5.2-4.69-7.15c-5.27-4.62-1.45-13.2,3.74-14.81c2.1-0.65,7.85-1.08,10.66,0.17 C386.57,182.52,387.17,186.14,387.17,186.14z" class="st16"/><path d="M375.95,193.48c0.08,0.21,0.63,0.25,0.73,0.29c0.22,0.1,0.12,0.13,1.09,1.61c0.71,1.09,1.9,1.44,4.13,0.69 c1.7-0.57,1.46-2.03,1.58-2.73c0.12-0.7,0.27-0.81,0.54-0.86c0.27-0.05,0.42,0.02,0.77,0.63c0.35,0.61,0.51,2.2,2.29,1.93 c1.23-0.18,1.55-0.52,1.71-1.49c0.15-0.86,0.19-1.71,0.14-2.35c-0.05-0.64-0.06-1.03-0.39-1.07c-0.4-0.04-0.93,0.07-1.46,0.16 c-1.06,0.19-1.82,0.21-2.4,0.62c-0.57,0.42-0.51,0.67-0.81,0.73c-0.31,0.06-0.36-0.21-1.04-0.4c-0.68-0.2-3.51,0.3-4.57,0.49 c-1.06,0.19-2.52,0.58-2.49,0.98C375.79,192.94,375.86,193.23,375.95,193.48z M385.11,191.9c0.05-0.52,0.09-0.46,1.4-0.76 c1.31-0.3,1.45-0.24,1.71-0.03c0.26,0.21,0.46,1.03,0.32,2.11c-0.07,0.58-0.19,1.33-1.26,1.52c-1.15,0.2-1.42-0.37-1.75-1.17 C385.21,192.77,385.09,192.09,385.11,191.9z M377.47,192.75c0.18-0.29,1.95-0.53,3.29-0.69c1.33-0.16,1.78-0.22,2.01,0.25 c0.08,0.17,0.2,0.85,0.17,1.71c-0.03,0.86-0.2,1.62-2.28,1.99c-1.47,0.26-2.18-0.14-2.78-1.24 C377.34,193.83,377.29,193.04,377.47,192.75z M373.02,194.08l2.93-0.6l0.99-1.45c0,0-1.12,0.16-2.98,0.57 c-0.88,0.2-1.76,0.83-1.76,0.83S372.62,193.63,373.02,194.08z" class="st23"/><g><path d="M349.93,208.67c0,0-2.53-16.05-2.56-17.55c-0.15-8.87,4.35-20.79,5.27-24.68 c0.92-3.89,1.53-3.27,1.71-3.78c0.18-0.51,6.63-1.5,6.63-1.5s1.73-0.72,2.14-0.76c0.4-0.04,2.1-0.55,2.1-0.55l-0.99,1.78 c0,0-4.02,3.05-4.27,3.46c-0.26,0.41-2.78,2.15-2.87,6.58c-0.17,7.94-0.14,16.53-0.14,16.53c-0.06-0.29,3.8,16.44,3.8,16.44 L349.93,208.67z" class="st13"/><path d="M357.29,232.97c-2.73-7.74-8.96-28.51-8.96-28.51s9.27-2.33,11.89-5.17c0,0,3.13,9.29,4.43,13.14 c1.44,4.26,3.6,8.97-0.05,10.97C361.07,225.34,358.6,236.68,357.29,232.97z" class="st12"/></g></g><g><g><linearGradient id="SVGID_5_" x1="476.38" x2="522.873" y1="276.019" y2="276.019" gradientTransform="matrix(-1 0 0 1 1031.4139 0)" gradientUnits="userSpaceOnUse"><stop style="stop-color:#343a44" offset="0"/><stop style="stop-color:#232d3e" offset=".301"/><stop style="stop-color:#182439" offset=".639"/><stop style="stop-color:#142138" offset="1"/></linearGradient><path d="M536.58,245.93c2.41,2.24,4.11,1.49,7.72,13.86c2.31,7.9,10.73,47.77,10.73,47.77l-5.03,2.18 c-6.8-19.06-6.79-19.04-14.74-34.5c-3.85-7.49-5.47-14.89-5.47-14.89l-14.69-0.88c-9.19-3.78-6.04-17.18-6.04-17.18 S534.17,243.69,536.58,245.93z" class="st32"/><linearGradient id="SVGID_6_" x1="487.744" x2="553.534" y1="269.679" y2="269.679" gradientTransform="matrix(-1 0 0 1 1031.4139 0)" gradientUnits="userSpaceOnUse"><stop style="stop-color:#343a44" offset="0"/><stop style="stop-color:#232d3e" offset=".301"/><stop style="stop-color:#182439" offset=".639"/><stop style="stop-color:#142138" offset="1"/></linearGradient><path d="M480.92,234.08l13.26-8.49l12.83,9.96l15.98,5.16c0,0-0.03,0.02-0.09,0.05 c6.43,2.23,13.76,5.48,16.01,7.58c2.41,2.24,7.15,5.42,3.33,17.73c-2.44,7.86-13.1,47.7-13.1,47.7l-5.4-0.96 c0,0,1.92-23.08,3.84-40.35c0.93-8.37,1.25-10.71,1.25-10.71s-35.67,3.89-47.16-2.18 C473.61,255.32,480.92,240.52,480.92,234.08z" class="st33"/><path d="M529.51,310.88c0,0-0.16,1.45-2.48,2.1c-2.32,0.65-3.9-1.27-3.9-1.27l-0.51,4.74l7.42,5.23h6.16 l-3.33-3.7L529.51,310.88z" class="st16"/><path d="M554.24,304.32c0,0,1.09,2.03-0.92,3.36c-2.01,1.33-4.1-0.02-4.1-0.02l0.95,4.67l17.52-5.48 L554.24,304.32z" class="st16"/></g><g><path d="M534.07,186.3c-0.03,0.25-2.92-3.47-2.92-3.47l-0.67-3.05c0,0-1.18-1.58-2.09-2.53 c-0.91-0.95-1.72-5.04-1.72-5.04l1.19-0.72c0,0,0.64,1.86,0.94,2.23c0.3,0.37,1.15,0.47,1.15,0.47s0.11-1.13,0.04-2.84 c-0.08-1.71-1.08-4.8-1.08-4.8l0.99-0.48c0,0,0.74,1.5,0.95,2.2c0.21,0.7,0.57,2.13,0.57,2.13s-0.07-2.31-0.3-3.25 c-0.23-0.94-0.4-2.16-0.4-2.16l1.04-0.27c0,0,0.52,1.55,0.69,2.62c0.17,1.07,0.54,2.89,0.54,2.89s0.14-2.53,0.04-3.31 c-0.1-0.78-0.11-1.16-0.11-1.16l1.1,0.03c0,0,0.4,1.15,0.39,2.49c-0.01,1.34,0.11,1.98,0.11,1.98s0.42-2.02,0.31-2.7 c-0.11-0.68-0.04-0.92-0.04-0.92l0.85,0.14c0,0,0.48,3.37,0.64,5.4c0.15,2.03-0.09,4.61-0.11,6.05 c-0.02,1.44-0.06,2.56-0.06,2.56L534.07,186.3z" class="st13"/><path d="M511.6,190.24c6.84,5.62,13.67,9.77,13.67,9.77s2.54-6.38,3.76-10.9c1.45-5.4,1.87-7.88,1.87-7.88 l5.16-0.42c0,0-1.63,13.8-3.66,23.17c-1.97,9.1-4.45,7.47-6.63,7.03c-2.18-0.45-22.71-11.48-22.71-11.48l2.2-11.72 C505.25,187.8,506.72,186.22,511.6,190.24z" class="st13"/><path d="M489.91,157.09c1.1-0.63,6.4-1.06,9.72,0.98c6.35,3.91,3.3,14.62,2.9,17.09 c-0.4,2.47,1.88,6.91,1.84,9.86c-0.04,2.95-0.74,4.01-2.94,6.87c-0.65,0.85-0.82,2.28-0.82,2.28s-2.43-3.64-2.96-8.71 c-0.52-5.07-1.6-3.89-4.13-9.45c-2.53-5.57-2.65-13.95-2.65-13.95L489.91,157.09z" class="st34"/><path d="M495.19,160.72l-5.28-3.63c0,0-4.51-0.6-7.13,3.41c-2.62,4.01-3.53,9.82-4.12,14.19 c-0.59,4.37-2.13,12.57-2.02,15.83c0.11,3.26,4.06,3.7,4.06,3.7l13.27-5.74c0,0-1.57-6.98-0.12-14.41 C495.29,166.63,495.19,160.72,495.19,160.72z" class="st34"/><path d="M499.61,161.83c0.28,1.65,1.56,6.5,1.68,9.61c0.13,3.11-0.24,8.24-2.3,9.65 c-2.06,1.41-5.93,0.29-8.76-0.89c-2.83-1.17-3.52-3.16-4.07-4.98c-0.55-1.83-0.36-6.67,0.29-10.15 c0.65-3.48,2.85-4.87,5.41-5.35C494.41,159.24,499.61,161.83,499.61,161.83z" class="st13"/><path d="M488.04,173.41c0,0,0.72,7.73-0.9,11.37c-1.12,2.51-5.67,3.58-5.67,3.58s-0.17,6.95,4.39,13.67 c4.56,6.71,18.83,9.2,18.83,9.2s2.79-5.61,4.26-11.89c1.47-6.28-2.51-11.13-2.51-11.13s-3.86-1.26-5.71-1.96 c-4.5-1.69-3.97-8.84-3.97-8.84L488.04,173.41z" class="st13"/><path d="M496.71,191.33c0,0-9.22-2.34-11.99-4.14l-9.15,5.44c0,0-5.37,5.13,3.8,18.6c0,0,3.48,12.27-2.17,33.9 c0,0,1.53,5.57,10.09,2.6c7.37-2.55,7.54-4.55,14-6.19c9.54-2.42,12.05-3.91,12.05-3.91c-5.01-7.53-4.12-19.29-4.12-19.29 s5.68-5.44,3.25-10.99c-3.51-8.02-4.69-19.37-4.69-19.37l-4.9-1.24c0,0-2.61,3.19-3.91,4.16 C497.66,191.88,496.71,191.33,496.71,191.33z" class="st12"/><path d="M500.73,186.24c0,0-1.12,4.18-4.02,5.09c0,0,1.13,5.72,3.84,4.73c3.81-1.4,2.32-9.31,2.32-9.31 L500.73,186.24z" class="st17"/><path d="M483.61,186.48c0,0,1.81,8.74,6.64,9.45c4.83,0.71,6.46-4.61,6.46-4.61s-10.24-3-11.24-6.14 L483.61,186.48z" class="st17"/><path d="M492.12,159.64c-0.89,0.06-1.55,4.27-1.64,6.62c-0.09,2.35-3.61,4.21-2.06,9.38 c1.55,5.17,1.34,10.17,3.43,15.84c2.08,5.67-0.51,7.74-1.64,9.7c0,0-4.46-4.88-5.97-7.33c-2.42-3.92-6.37-2.86-6.37-2.86 s6.81-13.22,6.58-16.78c-0.23-3.56-0.86-9.01,1.98-12.26C489.27,158.69,492.12,159.64,492.12,159.64z" class="st34"/><path d="M488.54,170.19c0,0-1.89-2.07-3.14-1.76c-1.25,0.32-1.33,2.19-0.38,3.72c0.95,1.53,4.47,2.4,4.47,2.4 L488.54,170.19z" class="st13"/><path d="M492.85,166.16c1.72,0.16,2.69-0.09,5.37-0.39c3.43-0.38,4.88,0.5,4.88,0.5l-1.3-5.7 c0,0-4.01-2.23-6.84-2.21c-3.61,0.02-6.77,1.41-4.98,2.57C491.87,162.17,492.85,166.16,492.85,166.16z" class="st34"/><g><path d="M483.33,199.02c-0.61,7.16-2.72,27.55-2.72,27.55c6.51,5.7,15.73,15.17,15.73,15.17s-2.62,5.17-3.75,4.3 c-8.97-7.01-19.23-11.17-19.96-16.05c-1.2-8.02-1.62-28.2,1.34-34.76C476.25,190.16,483.98,191.42,483.33,199.02z" class="st13"/><path d="M500.3,242.37c2.73,1.02,4.44,2.03,4.28,3.05c-0.11,0.7-2.44-0.58-3.83-0.53 c0.46,0.99,1.72,2.47,3.31,3.25c1.8,0.89,2.81,2.12,1.85,3.16c-0.96,1.04-2.74,2.5-3.9,1.97c-1.16-0.53-5.28-3.41-6.83-4.2 c-1.55-0.8-2.17-2.74-2.97-3.28c-0.8-0.54,1.46-4.63,1.46-4.63c0.43,0.12,2.68,0.6,2.68,0.6s1.77,0.26,2.23,0.19 C499.03,241.85,500.3,242.37,500.3,242.37z" class="st13"/></g></g></g><line x1="70.25" x2="679.75" y1="379.06" y2="379.06" class="st21"/></g></g></g><g id="DESIGNED_BY_FREEPIK" class="st0"><g class="st3"><g id="XMLID_319_"><g id="XMLID_338_"><path id="XMLID_346_" d="M385.1,464.11c-0.43,0.44-0.8,0.93-1.11,1.45l-0.47-0.24c-0.07-0.3-0.35-0.5-0.66-0.47 c-0.33,0.04-0.57,0.34-0.53,0.67s0.34,0.57,0.67,0.53c0.07-0.01,0.13-0.03,0.18-0.05l0.45,0.23c-0.25,0.55-0.43,1.14-0.54,1.74 l0.75,0.13c0.23-1.31,0.85-2.51,1.79-3.47L385.1,464.11z" class="st35"/><path id="XMLID_345_" d="M390.59,461.81c-0.17,0-0.34,0.01-0.51,0.02l-0.07-0.63c0.19-0.15,0.3-0.39,0.27-0.64 c-0.05-0.39-0.4-0.67-0.8-0.63s-0.67,0.4-0.63,0.8c0.03,0.25,0.19,0.46,0.4,0.56l0.07,0.62c-0.71,0.12-1.4,0.33-2.06,0.65 l0.33,0.68c0.93-0.45,1.94-0.67,3-0.67c0.5,0,0.99,0.05,1.48,0.16l0.16-0.74C391.69,461.87,391.14,461.81,390.59,461.81z" class="st35"/><path id="XMLID_344_" d="M397.19,464.36c0.33-0.04,0.57-0.34,0.53-0.67c-0.04-0.33-0.34-0.57-0.67-0.53 c-0.31,0.04-0.54,0.3-0.53,0.61l-0.42,0.36c-0.42-0.43-0.89-0.81-1.41-1.14l-0.4,0.64c1.13,0.71,2.02,1.73,2.56,2.93l0.69-0.31 c-0.25-0.55-0.57-1.07-0.94-1.54l0.4-0.35C397.06,464.36,397.13,464.37,397.19,464.36z" class="st35"/><path id="XMLID_343_" d="M390.04,472.02c-0.39,0.02-0.77,0.03-1.16,0.03c-0.88,0-1.73-0.06-2.48-0.18 c-0.39-0.06-0.85-0.15-1.27-0.29c1.05,1.86,3.07,3.13,5.39,3.13c2.86,0,5.26-1.92,5.95-4.5c-0.68,0.45-1.51,0.83-2.46,1.12 C392.84,471.7,391.46,471.94,390.04,472.02z" class="st35"/><path id="XMLID_339_" d="M390.59,463.33c-3.35,0-6.08,2.67-6.08,5.94c0,0.43,0.05,0.85,0.14,1.26 c0.67,0.48,2.71,0.89,5.35,0.73c2.88-0.17,5.3-0.96,6.67-2.16c-0.01-0.2-0.02-0.39-0.05-0.58 C396.24,465.56,393.65,463.33,390.59,463.33z M388.43,469.84c-1.02,0-1.85-0.83-1.85-1.85c0-1.02,0.83-1.85,1.85-1.85 c1.02,0,1.85,0.83,1.85,1.85C390.28,469.01,389.45,469.84,388.43,469.84z M393.17,468.94c-0.75,0-1.36-0.61-1.36-1.36 s0.61-1.36,1.36-1.36c0.75,0,1.36,0.61,1.36,1.36S393.92,468.94,393.17,468.94z" class="st35"/></g><path id="XMLID_336_" d="M406.6,465.2c-0.29-0.12-0.81-0.31-1.38-0.24c-0.55,0.07-0.84,0.34-0.84,1.01v0.87h2.23 v1.72h-2.23V474h-1.93v-5.45h-1.34v-1.72h1.34v-0.89c0-1.68,0.9-2.78,2.57-2.78c0.64,0,1.16,0.12,1.59,0.31L406.6,465.2z" class="st35"/><path id="XMLID_334_" d="M411.3,468.53c-0.18-0.03-0.36-0.05-0.53-0.05c-0.9,0-1.51,0.55-1.51,1.61V474h-1.93v-7.17 h1.87v0.78c0.45-0.67,1.14-0.98,2.02-0.98c0.41,0,0.85,0.13,1.09,0.34L411.3,468.53z" class="st35"/><path id="XMLID_331_" d="M418.97,470.41c0,0.22-0.01,0.49-0.04,0.65h-5.08c0.21,1.04,0.93,1.49,1.84,1.49 c0.62,0,1.3-0.25,1.81-0.69l1.13,1.24c-0.81,0.75-1.85,1.09-3.06,1.09c-2.2,0-3.72-1.5-3.72-3.75c0-2.26,1.48-3.8,3.63-3.8 C417.54,466.64,418.96,468.17,418.97,470.41z M413.85,469.74h3.18c-0.18-0.92-0.73-1.44-1.56-1.44 C414.55,468.3,414.02,468.85,413.85,469.74z" class="st35"/><path id="XMLID_328_" d="M426.62,470.41c0,0.22-0.02,0.49-0.04,0.65h-5.08c0.21,1.04,0.93,1.49,1.84,1.49 c0.62,0,1.3-0.25,1.81-0.69l1.13,1.24c-0.81,0.75-1.85,1.09-3.06,1.09c-2.2,0-3.72-1.5-3.72-3.75c0-2.26,1.48-3.8,3.63-3.8 C425.2,466.64,426.61,468.17,426.62,470.41z M421.5,469.74h3.18c-0.18-0.92-0.73-1.44-1.56-1.44 C422.21,468.3,421.67,468.85,421.5,469.74z" class="st35"/><path id="XMLID_325_" d="M434.96,470.41c0,2.15-1.5,3.77-3.47,3.77c-0.96,0-1.64-0.38-2.11-0.93v3.71h-1.92v-10.13 h1.89v0.79c0.47-0.58,1.15-0.98,2.14-0.98C433.47,466.64,434.96,468.26,434.96,470.41z M429.29,470.41 c0,1.13,0.75,1.98,1.84,1.98c1.14,0,1.85-0.88,1.85-1.98c0-1.1-0.71-1.98-1.85-1.98C430.03,468.44,429.29,469.28,429.29,470.41z" class="st35"/><path id="XMLID_322_" d="M438.07,464.48c0,0.7-0.54,1.23-1.24,1.23c-0.7,0-1.23-0.53-1.23-1.23 c0-0.7,0.53-1.24,1.23-1.24C437.53,463.24,438.07,463.79,438.07,464.48z M437.81,474h-1.93v-7.17h1.93V474z" class="st35"/><path id="XMLID_320_" d="M441.03,469.38l2.7-2.55h2.37l-3.48,3.38l3.5,3.8h-2.38l-2.72-2.9v2.9h-1.93v-10.66h1.93 V469.38z" class="st35"/></g><g><path d="M309.41,473.94v-1.05c-0.53,0.72-1.39,1.23-2.39,1.23c-1.85,0-3.15-1.41-3.15-3.71 c0-2.26,1.29-3.72,3.15-3.72c0.95,0,1.82,0.47,2.39,1.25v-3.76h1.1v9.77H309.41z M309.41,472.02v-3.21 c-0.4-0.62-1.24-1.14-2.12-1.14c-1.42,0-2.27,1.17-2.27,2.74c0,1.57,0.85,2.72,2.27,2.72 C308.17,473.13,309.02,472.63,309.41,472.02z" class="st35"/><path d="M311.93,470.39c0-2.05,1.46-3.71,3.49-3.71c2.14,0,3.4,1.67,3.4,3.79v0.28h-5.73 c0.09,1.33,1.03,2.45,2.55,2.45c0.81,0,1.63-0.32,2.18-0.89l0.53,0.72c-0.7,0.7-1.65,1.08-2.81,1.08 C313.44,474.11,311.93,472.61,311.93,470.39z M315.4,467.6c-1.51,0-2.26,1.27-2.31,2.36h4.64 C317.72,468.9,317.01,467.6,315.4,467.6z" class="st35"/><path d="M319.61,473l0.57-0.79c0.47,0.54,1.36,1.01,2.33,1.01c1.08,0,1.67-0.51,1.67-1.22 c0-1.71-4.38-0.66-4.38-3.28c0-1.1,0.95-2.04,2.64-2.04c1.2,0,2.05,0.45,2.62,1.03l-0.51,0.76c-0.42-0.51-1.2-0.89-2.11-0.89 c-0.97,0-1.57,0.48-1.57,1.11c0,1.55,4.38,0.53,4.38,3.28c0,1.19-0.95,2.14-2.78,2.14C321.31,474.11,320.32,473.76,319.61,473z" class="st35"/><path d="M326.48,465.12c0-0.41,0.34-0.75,0.73-0.75c0.41,0,0.75,0.34,0.75,0.75c0,0.41-0.34,0.73-0.75,0.73 C326.81,465.85,326.48,465.53,326.48,465.12z M326.67,473.94v-7.07h1.1v7.07H326.67z" class="st35"/><path d="M329.58,475.75l0.56-0.82c0.59,0.7,1.29,0.97,2.3,0.97c1.17,0,2.27-0.57,2.27-2.12v-1.01 c-0.51,0.72-1.38,1.26-2.37,1.26c-1.85,0-3.15-1.38-3.15-3.66c0-2.27,1.29-3.68,3.15-3.68c0.95,0,1.8,0.47,2.37,1.25v-1.07h1.1 v6.87c0,2.34-1.64,3.08-3.37,3.08C331.24,476.81,330.42,476.57,329.58,475.75z M334.71,471.9v-3.09 c-0.38-0.62-1.23-1.14-2.11-1.14c-1.42,0-2.27,1.13-2.27,2.7c0,1.55,0.85,2.7,2.27,2.7C333.48,473.06,334.33,472.52,334.71,471.9 z" class="st35"/><path d="M342.41,473.94v-4.63c0-1.24-0.63-1.64-1.58-1.64c-0.86,0-1.68,0.53-2.09,1.1v5.17h-1.1v-7.07h1.1v1.03 c0.5-0.59,1.46-1.2,2.52-1.2c1.48,0,2.26,0.75,2.26,2.29v4.97H342.41z" class="st35"/><path d="M344.93,470.39c0-2.05,1.46-3.71,3.49-3.71c2.14,0,3.4,1.67,3.4,3.79v0.28h-5.73 c0.09,1.33,1.03,2.45,2.55,2.45c0.81,0,1.63-0.32,2.18-0.89l0.53,0.72c-0.7,0.7-1.66,1.08-2.81,1.08 C346.44,474.11,344.93,472.61,344.93,470.39z M348.4,467.6c-1.51,0-2.26,1.27-2.31,2.36h4.64 C350.72,468.9,350.02,467.6,348.4,467.6z" class="st35"/><path d="M358.35,473.94v-1.05c-0.53,0.72-1.39,1.23-2.39,1.23c-1.85,0-3.15-1.41-3.15-3.71 c0-2.26,1.29-3.72,3.15-3.72c0.95,0,1.82,0.47,2.39,1.25v-3.76h1.1v9.77H358.35z M358.35,472.02v-3.21 c-0.4-0.62-1.25-1.14-2.12-1.14c-1.42,0-2.27,1.17-2.27,2.74c0,1.57,0.85,2.72,2.27,2.72 C357.1,473.13,357.95,472.63,358.35,472.02z" class="st35"/><path d="M364.69,473.94v-9.77h1.1v3.76c0.57-0.78,1.42-1.25,2.39-1.25c1.85,0,3.15,1.46,3.15,3.72 c0,2.3-1.3,3.71-3.15,3.71c-1,0-1.86-0.51-2.39-1.23v1.05H364.69z M367.9,473.13c1.44,0,2.29-1.16,2.29-2.72 c0-1.57-0.85-2.74-2.29-2.74c-0.86,0-1.73,0.53-2.11,1.14v3.21C366.17,472.63,367.04,473.13,367.9,473.13z" class="st35"/><path d="M372.53,475.71c0.16,0.07,0.42,0.12,0.6,0.12c0.48,0,0.81-0.16,1.05-0.75l0.47-1.07l-2.96-7.15h1.19 l2.36,5.8l2.34-5.8h1.2l-3.54,8.51c-0.42,1.03-1.14,1.42-2.08,1.44c-0.23,0-0.6-0.04-0.81-0.1L372.53,475.71z" class="st35"/></g></g></g></svg>