<svg id="fe05ff1b-91d6-48f2-9fce-9873af8f36b4" data-name="Layer 1" xmlns="http://www.w3.org/2000/svg" width="640.86961" height="672" viewBox="0 0 640.86961 672"><rect x="100.44942" width="275.64528" height="66.98273" fill="#e6e6e6"/><path d="M387.247,173.75008H648.42755V121.23266H387.247Z" transform="translate(-279.56519 -114)" fill="#fff"/><circle cx="157.42826" cy="33.49137" r="20.00782" fill="#6c63ff"/><rect x="205.27308" y="25.66221" width="133.8506" height="4.34953" fill="#6c63ff"/><rect x="205.27308" y="36.97098" width="133.8506" height="4.34953" fill="#6c63ff"/><rect y="112.72657" width="275.64528" height="66.98273" fill="#e6e6e6"/><path d="M286.79754,286.47665H547.97813V233.95923H286.79754Z" transform="translate(-279.56519 -114)" fill="#fff"/><circle cx="56.97884" cy="146.21794" r="20.00782" fill="#e6e6e6"/><rect x="104.82365" y="138.38878" width="133.8506" height="4.34953" fill="#e6e6e6"/><rect x="104.82365" y="149.69755" width="133.8506" height="4.34953" fill="#e6e6e6"/><rect y="225.45315" width="275.64528" height="66.98273" fill="#e6e6e6"/><path d="M286.79754,399.20322H547.97813V346.68581H286.79754Z" transform="translate(-279.56519 -114)" fill="#fff"/><circle cx="56.97884" cy="258.94451" r="20.00782" fill="#e6e6e6"/><rect x="104.82365" y="251.11536" width="133.8506" height="4.34953" fill="#e6e6e6"/><rect x="104.82365" y="262.42412" width="133.8506" height="4.34953" fill="#e6e6e6"/><rect x="279.2153" y="626.59254" width="361.65431" height="2.50088" fill="#3f3d56"/><path d="M711.01659,215.19543l17.79333,43.799,10.94972,30.11177L768.5027,246.676s-17.79333-17.79339-17.79333-41.06153Z" transform="translate(-279.56519 -114)" fill="#a0616a"/><polygon points="378.072 566.559 369.859 607.62 393.127 626.782 402.709 566.559 378.072 566.559" fill="#a0616a"/><polygon points="512.206 556.978 509.468 606.252 532.736 602.145 535.474 559.715 512.206 556.978" fill="#a0616a"/><circle cx="451.29778" cy="92.29877" r="31.48049" fill="#a0616a"/><path d="M802.72063,337.0112s10.94972,95.81016,2.73743,95.81016-47.90508-8.21227-56.11738-15.05587-34.21792-4.10615-34.21792-4.10615-19.162,15.05587-28.74306,6.84358,6.84361-104.02248,6.84361-104.02248l-4.10618-58.85481s17.79334-5.47487,26.00563,2.73743l2.50475-2.97017,7.11738-8.40386,10.90864,10.00537.1232.46531,3.98291,14.59058s5.83076-19.81908,9.95061-23.95254a2.8986,2.8986,0,0,1,.99912-.68436c4.10618-1.36871,11.32324-10.9965,11.32324-10.9965l16.24273,8.30009,1.17709,1.3277,34.21792,9.581Z" transform="translate(-279.56519 -114)" fill="#e6e6e6"/><path d="M694.592,415.02806l-2.73743,13.68715s-15.05591,2.73744-10.94973,31.48049l-10.94973,101.285-17.79333,125.9219,32.84918,4.10618,62.961-186.14546L786.296,681.92782H820.514l-6.84361-197.09518s5.47486-41.0615-13.68716-60.22355S711.01659,404.07833,694.592,415.02806Z" transform="translate(-279.56519 -114)" fill="#2f2e41"/><path d="M663.11151,724.358s2.73743-10.94973-4.10618-12.31841-12.31841,4.10617-13.68716,6.8436S612.469,759.94471,612.469,759.94471s-23.2682,27.37431,10.94972,26.00562S659.00533,768.157,659.00533,768.157s0-2.73743,6.84361-2.73743,24.63688-9.581,23.26819-16.42459S676.238,718.49672,676.238,718.49672,668.58637,738.0452,663.11151,724.358Z" transform="translate(-279.56519 -114)" fill="#2f2e41"/><path d="M815.0391,707.93345s-12.31842-8.21229-19.162-2.73743-9.581,6.84355-9.581,6.84355l-.11049.82869a66.99714,66.99714,0,0,0,3.25345,30.04347c.81107,2.43327-.78518,4.18514-.40553,6.08319,2.05306,10.26536,4.10617,23.2682,24.63688,17.79334S815.0391,707.93345,815.0391,707.93345Z" transform="translate(-279.56519 -114)" fill="#2f2e41"/><path d="M805.45806,445.13983s-23.2682,24.63688-9.581,32.84921,21.89945-26.00563,21.89945-26.00563Z" transform="translate(-279.56519 -114)" fill="#a0616a"/><path d="M653.63465,188.7219s16.14485-29.79479.80533-34.20843-14.47,30.7652-14.47,30.7652Z" transform="translate(-279.56519 -114)" fill="#a0616a"/><path d="M795.877,261.73179l17.79333-4.10614s19.162,15.05587,26.00563,67.06711S820.514,460.1957,820.514,460.1957l-20.53077-12.31844s10.94973-65.69838,9.581-75.27942-9.581-46.53636-9.581-46.53636Z" transform="translate(-279.56519 -114)" fill="#e6e6e6"/><path d="M706.23865,172.48292l-5.72629-2.08228s11.9731-11.97314,28.63155-10.93195l-4.68529-4.6852s11.45264-4.16455,21.86405,6.76742c5.47312,5.74669,11.80554,12.50162,15.75316,20.111h6.1325l-2.55946,5.11893,8.95813,5.11895-9.19464-.91949a25.83072,25.83072,0,0,1-.8696,13.25747l-2.08222,5.72624s-8.3292-16.65826-8.3292-18.74056v5.20569s-5.72629-4.68512-5.72629-7.80853l-3.12343,3.644-1.56169-5.7263-19.26114,5.7263,3.12344-4.68512-11.97316,1.5617,4.68529-5.7263s-11.33061,7.828-14.05554,12.49373c-2.89976,4.96509-7.28787,13.01425-7.28787,13.01425l-3.12344-5.20569S691.14211,180.29145,706.23865,172.48292Z" transform="translate(-279.56519 -114)" fill="#2f2e41"/><path d="M695.96074,260.36308l-6.84361-2.73743-36.271-4.79052,2.05306-65.014L638.47462,172.7652S593.307,254.8882,639.84337,285s61.59218,35.58663,61.59218,35.58663Z" transform="translate(-279.56519 -114)" fill="#e6e6e6"/></svg>